<?xml version="1.0" encoding="utf-8"?>
<!-- Generator: Adobe Illustrator 16.0.0, SVG Export Plug-In . SVG Version: 6.00 Build 0)  -->
<!DOCTYPE svg PUBLIC "-//W3C//DTD SVG 1.1//EN" "http://www.w3.org/Graphics/SVG/1.1/DTD/svg11.dtd">
<svg version="1.1" id="图层_1" xmlns="http://www.w3.org/2000/svg" xmlns:xlink="http://www.w3.org/1999/xlink" x="0px" y="0px"
	 width="90.71px" height="90.71px" viewBox="0 0 90.71 90.71" enable-background="new 0 0 90.71 90.71" xml:space="preserve">
<g>
	<path fill-rule="evenodd" clip-rule="evenodd" fill="#FF5C5C" d="M-552.02-71.33c-8.07-18.46-20.77-33.63-36.02-46.69
		c-20.87-17.88-44.3-30.75-71.67-35.4c-25.93-4.4-51.05-0.77-75.54,8.4c-51.49,19.29-89.61,74.88-77.56,133.07
		c0.87,4.22-0.62,5.78-4.39,7.32c-6.43,2.61-12.96,5.42-18.64,9.32c-8.62,5.93-10.75,14.61-5.72,23.67
		c3.07,5.54,7.81,10.2,12.07,15.03c2.34,2.65,5.22,4.81,8.83,8.07c-3,0.63-4.74,1.45-6.36,1.26c-7.08-0.8-14.19-1.54-21.14-3.01
		c-5.03-1.06-5.99-1.09-5.19,4.04c1.18,7.67,2.87,15.31,4.99,22.77c2.58,9.101,5.95,17.98,8.72,27.03c0.79,2.58,0.67,5.43,1.07,9.01
		c4.91-2.899,9.07-5.369,13.23-7.83c0.3,0.36,0.59,0.721,0.88,1.08c-0.78,1.021-1.45,2.141-2.35,3.03
		c-14.81,14.61-29.5,29.351-44.51,43.75c-20.92,20.05-42.16,39.76-63.08,59.811c-3.16,3.04-5.9,6.85-7.79,10.8
		c-2.39,4.99-0.46,9.609,4.07,12.52c8.21,5.28,9.64,4.74,15.46,0.54c10.72-7.71,17.87-18.649,26.83-27.939
		c32-33.221,64.01-66.44,96.04-99.63c1.05-1.091,2.36-1.931,3.55-2.891c0.45,0.33,0.9,0.67,1.35,1c-1.29,2.76-2.66,5.48-3.84,8.28
		c-3.86,9.18-8.33,18.18-11.29,27.64c-2.88,9.19,0.93,12.66,9.88,9.62c6.71-2.27,13.27-2.45,20.16-1.6
		c8.39,1.04,16.81,2.38,25.2-0.641c3.86-1.39,4.94-3.29,3.43-7.109c-2.63-6.65-5.08-13.391-7.47-20.13c-0.53-1.5-0.5-3.2-0.89-5.931
		c2.1,1.261,3.09,1.75,3.98,2.391c8.48,6.12,17.66,10.68,28.1,12.3c18.05,2.78,28.95-9.19,24.46-26.79
		c-0.99-3.9,0.03-4.68,4.74-3.46c16.24,4.24,32.77,4.899,49,1.18c43.58-9.979,74.68-36.5,94.42-75.87
		C-539.05-5.13-537.6-38.3-552.02-71.33z M-922.5,230.51c-2.94,1.16-7.55,0.23-10.49-1.399c-3.03-1.69-1.15-5.08,0.61-7.41
		c1.5-1.98,3.27-3.76,4.92-5.63c3.01-2.88,5.27-2.07,7.3,1.159C-917.46,221.52-918.11,228.79-922.5,230.51z M-899.32,204.51
		c-1.44-1.02-3.3-1.63-3.71-2.77c-0.87-2.44-1.98-5.561-1.13-7.641c0.85-2.1,3.87-3.47,6.17-4.71c0.48-0.25,3.02,1.7,2.89,2.21
		C-895.93,195.06-897.24,198.4-899.32,204.51z M-875.56,175.5c-4.56-3.6-1.36-8.33,6.79-14.271
		C-864.22,164.77-866.69,169.97-875.56,175.5z M-848.2,148.28c-0.74,0.3-2.41,0.1-2.55-0.28c-0.49-1.28-1.15-3.32-0.53-4.04
		c2.86-3.41,6.13-6.47,9.26-9.66C-840.46,139.25-844.73,146.89-848.2,148.28z M-834.23,25.81c-3.93-7.63-2.47-12.93,5.26-17.07
		c5.98-3.2,12.5-5.41,18.77-8.08c4.89-2.09,9.72-4.35,14.67-6.3c7.65-3.03,12.79-0.07,14.04,8.03c0.35,2.28,0.35,4.64,0.31,6.96
		c-0.18,11.81-0.35,23.62-0.7,35.42c-0.07,2.32-0.91,4.62-1.4,6.93c-0.55,0.02-1.11,0.04-1.66,0.06c-1.07-3.34-1.93-6.78-3.3-10
		c-0.68-1.6-2.29-2.8-3.48-4.19c-1.11,1.83-2.26,3.64-3.3,5.51c-0.22,0.38-0.08,0.98-0.05,1.48c0.43,7.49,0.41,7.72-7.35,6.91
		c-3.38-0.359-7-1.26-9.9-2.96C-821.7,43.05-829.22,35.53-834.23,25.81z M-775.56,54.89c0.62-1,3.23-1.6,4.5-1.16
		c1.94,0.671,3.51,2.4,4.37,3.04c4.75,5.86,4.49,11.5,2.29,16.931c-2.48,6.1-5.94,12.109-13.24,12.89
		c-2.99,0.32-7.06-1.32-9.15-3.51c-1.4-1.47-1.11-5.87,0.01-8.21C-783.51,67.979-779.57,61.39-775.56,54.89z M-820.44,90.37
		c-3.47,2.78-6.93,5.57-11.19,9c-3.82-10.26-7.24-19.36-10.6-28.49c-0.75-2.02-1.33-4.11-1.95-6.18c-1.42-4.78-0.95-4.92,3.83-4.87
		c7.77,0.07,15.57-0.271,23.32-0.89c8.01-0.641,15.92-1.301,23.5,2.199c4.14,1.9,4.8,3.58,1.37,6.46
		C-801.41,75.4-811,82.81-820.44,90.37z M-765.18,144.27c-6.81,0.11-13.62-0.63-20.44-0.829c-4.14-0.131-8.34-0.25-12.45,0.199
		c-3.81,0.42-4.71-0.779-3.3-4.109c3.32-7.82,6.81-15.57,9.98-23.44c2.48-6.149,4.48-12.5,6.96-18.649
		c0.58-1.461,2.03-3.211,3.4-3.561c2.4-0.62,5.05-0.27,7.57-0.32c0.43,1.83,0.62,2.79,0.88,3.74c3.75,13.61,7.39,27.25,11.3,40.82
		C-759.78,143.3-759.83,144.19-765.18,144.27z M-727.61,124.229c-12-2-25.66-10.14-33.85-19.52c-1.49-3.65-3.52-7.18-4.35-10.97
		c-1.03-4.681,1.5-6.48,6.1-5.08c2.22,0.68,4.49,1.91,6.67,1.77c1.79-0.12,3.47-1.899,5.19-2.939c-1.17-1.391-2.32-2.8-3.53-4.16
		c-0.19-0.21-0.62-0.2-0.94-0.3c-5.92-1.771-7.54-6.351-3.81-11.521c0.7-0.97,2.61-1.77,3.81-1.6c11.01,1.63,21.99,3.41,32.95,5.3
		c4.28,0.74,6.1,3.25,5.43,7.86c-1.1,7.54,0.11,14.8,2.81,22.01C-706.1,118.479-713.27,126.61-727.61,124.229z M-565.68,31.41
		c-14.53,25.24-34.89,44.52-61.61,56.45c-24.38,10.869-49.67,11.46-75.35,5.21c-4.97-1.2-3.95-5.271-3.73-8.471
		c0.05-0.81,3.58-2.109,5.42-1.96c24.67,2,48.26-2.12,70.19-13.529c51.6-26.851,70.3-88.95,45.57-141.641
		c-22.7-48.38-78.3-67.57-122.2-57.37c-53.48,12.43-83.05,75.02-56.79,122.47c11.95,21.58,31.45,35.17,54.46,43.15
		c23.33,8.09,45.63,4.61,65.26-10.34c24.66-18.79,31.13-52.75,16.27-80.07c-9.31-17.12-22.53-29.43-42.26-32.75
		c-43.03-7.26-66.44,26.17-59.82,57.31c4.98,23.44,36.38,39.96,56.42,29.92c9.81-4.92,15.65-17.11,13.52-28.25
		c-2.03-10.65-10.82-18.78-21.17-19.61c-7.26-0.58-12.52,2.11-14.42,7.38c-2.05,5.71,0.76,10.07,6.8,10.47
		c1.16,0.08,2.34,0.05,3.49-0.09c3.79-0.46,7-0.1,8.2,4.39c1.07,4-0.55,9.07-4.54,10.55c-2.92,1.09-6.62,1.48-9.61,0.73
		c-8.71-2.17-15.57-7.46-20.62-14.84c-1.25-1.84-2.13-4.3-2.2-6.5c-0.66-19.59,10.25-36.88,33.89-35.86
		c22.89,0.98,40.19,18.86,42.78,43.03c3.18,29.72-20.35,48.32-44.16,51.52c-18.7,2.51-34.19-5.35-48.25-16.48
		c-8.52-6.75-15.99-14.64-21.03-24.45c-6.2-12.1-6.67-24.99-4.32-38.01c4.07-22.45,14.47-40.79,35.66-51.27
		c15.32-7.58,31.7-9.83,48.64-7.64c28.09,3.63,51.62,15.51,66.02,40.62c25.94,45.21,15.03,98.5-29.95,126.83
		c-38.99,24.561-94.04,15.92-123.28-11.57c-5.3-4.99-9.78-10.91-14.18-16.74c-1.32-1.75-1.44-4.67-1.47-7.06
		c-0.04-4.32,0.71-8.65,0.57-12.96c-0.46-13.22-10.71-20.51-23.37-16.84c-1.12,0.32-2.23,0.67-3.32,1.08
		c-3.49,1.32-5.17,0.24-5.81-3.56c-3.02-17.8-1.62-35.24,4.45-52.17c13.31-37.1,39.77-60.74,76.56-73.28
		c19.81-6.76,40.17-8.77,61.08-6.24c26.31,3.18,48.56,14.77,68.27,31.74c7.04,6.06,13.23,13.11,19.81,19.7
		c14.13,17.66,23.79,37.03,25.52,59.86C-548.49-11.77-553.77,10.7-565.68,31.41z"/>
	<path fill-rule="evenodd" clip-rule="evenodd" fill="#DFDF33" d="M-565.68,31.41c-14.53,25.24-34.89,44.52-61.61,56.45
		c-24.38,10.869-49.67,11.46-75.35,5.21c-4.97-1.2-3.95-5.271-3.73-8.471c0.05-0.81,3.58-2.109,5.42-1.96
		c24.67,2,48.26-2.12,70.19-13.529c51.6-26.851,70.3-88.95,45.57-141.641c-22.7-48.38-78.3-67.57-122.2-57.37
		c-53.48,12.43-83.05,75.02-56.79,122.47c11.95,21.58,31.45,35.17,54.46,43.15c23.33,8.09,45.63,4.61,65.26-10.34
		c24.66-18.79,31.13-52.75,16.27-80.07c-9.31-17.12-22.53-29.43-42.26-32.75c-43.03-7.26-66.44,26.17-59.82,57.31
		c4.98,23.44,36.38,39.96,56.42,29.92c9.81-4.92,15.65-17.11,13.52-28.25c-2.03-10.65-10.82-18.78-21.17-19.61
		c-7.26-0.58-12.52,2.11-14.42,7.38c-2.05,5.71,0.76,10.07,6.8,10.47c1.16,0.08,2.34,0.05,3.49-0.09c3.79-0.46,7-0.1,8.2,4.39
		c1.07,4-0.55,9.07-4.54,10.55c-2.92,1.09-6.62,1.48-9.61,0.73c-8.71-2.17-15.57-7.46-20.62-14.84c-1.25-1.84-2.13-4.3-2.2-6.5
		c-0.66-19.59,10.25-36.88,33.89-35.86c22.89,0.98,40.19,18.86,42.78,43.03c3.18,29.72-20.35,48.32-44.16,51.52
		c-18.7,2.51-34.19-5.35-48.25-16.48c-8.52-6.75-15.99-14.64-21.03-24.45c-6.2-12.1-6.67-24.99-4.32-38.01
		c4.07-22.45,14.47-40.79,35.66-51.27c15.32-7.58,31.7-9.83,48.64-7.64c28.09,3.63,51.62,15.51,66.02,40.62
		c25.94,45.21,15.03,98.5-29.95,126.83c-38.99,24.561-94.04,15.92-123.28-11.57c-5.3-4.99-9.78-10.91-14.18-16.74
		c-1.32-1.75-1.44-4.67-1.47-7.06c-0.04-4.32,0.71-8.65,0.57-12.96c-0.46-13.22-10.71-20.51-23.37-16.84
		c-1.12,0.32-2.23,0.67-3.32,1.08c-3.49,1.32-5.17,0.24-5.81-3.56c-3.02-17.8-1.62-35.24,4.45-52.17
		c13.31-37.1,39.77-60.74,76.56-73.28c19.81-6.76,40.17-8.77,61.08-6.24c26.31,3.18,48.56,14.77,68.27,31.74
		c7.04,6.06,13.23,13.11,19.81,19.7c14.13,17.66,23.79,37.03,25.52,59.86C-548.49-11.77-553.77,10.7-565.68,31.41z"/>
	<path fill-rule="evenodd" clip-rule="evenodd" fill="#FF7A7A" d="M-781.18,9.35c-0.18,11.81-0.35,23.62-0.7,35.42
		c-0.07,2.32-0.91,4.62-1.4,6.93c-0.55,0.02-1.11,0.04-1.66,0.06c-1.07-3.34-1.93-6.78-3.3-10c-0.68-1.6-2.29-2.8-3.48-4.19
		c-1.11,1.83-2.26,3.64-3.3,5.51c-0.22,0.38-0.08,0.98-0.05,1.48c0.43,7.49,0.41,7.72-7.35,6.91c-3.38-0.359-7-1.26-9.9-2.96
		c-9.38-5.46-16.9-12.98-21.91-22.7c-3.93-7.63-2.47-12.93,5.26-17.07c5.98-3.2,12.5-5.41,18.77-8.08c4.89-2.09,9.72-4.35,14.67-6.3
		c7.65-3.03,12.79-0.07,14.04,8.03C-781.14,4.67-781.14,7.03-781.18,9.35z"/>
	<path fill-rule="evenodd" clip-rule="evenodd" fill="#FF7A7A" d="M-727.61,124.229c-12-2-25.66-10.14-33.85-19.52
		c-1.49-3.65-3.52-7.18-4.35-10.97c-1.03-4.681,1.5-6.48,6.1-5.08c2.22,0.68,4.49,1.91,6.67,1.77c1.79-0.12,3.47-1.899,5.19-2.939
		c-1.17-1.391-2.32-2.8-3.53-4.16c-0.19-0.21-0.62-0.2-0.94-0.3c-5.92-1.771-7.54-6.351-3.81-11.521c0.7-0.97,2.61-1.77,3.81-1.6
		c11.01,1.63,21.99,3.41,32.95,5.3c4.28,0.74,6.1,3.25,5.43,7.86c-1.1,7.54,0.11,14.8,2.81,22.01
		C-706.1,118.479-713.27,126.61-727.61,124.229z"/>
	<path fill-rule="evenodd" clip-rule="evenodd" fill="#FF7A7A" d="M-765.18,144.27c-6.81,0.11-13.62-0.63-20.44-0.829
		c-4.14-0.131-8.34-0.25-12.45,0.199c-3.81,0.42-4.71-0.779-3.3-4.109c3.32-7.82,6.81-15.57,9.98-23.44
		c2.48-6.149,4.48-12.5,6.96-18.649c0.58-1.461,2.03-3.211,3.4-3.561c2.4-0.62,5.05-0.27,7.57-0.32c0.43,1.83,0.62,2.79,0.88,3.74
		c3.75,13.61,7.39,27.25,11.3,40.82C-759.78,143.3-759.83,144.19-765.18,144.27z"/>
	<path fill-rule="evenodd" clip-rule="evenodd" fill="#FF7A7A" d="M-792.16,67.6C-801.41,75.4-811,82.81-820.44,90.37
		c-3.47,2.78-6.93,5.57-11.19,9c-3.82-10.26-7.24-19.36-10.6-28.49c-0.75-2.02-1.33-4.11-1.95-6.18c-1.42-4.78-0.95-4.92,3.83-4.87
		c7.77,0.07,15.57-0.271,23.32-0.89c8.01-0.641,15.92-1.301,23.5,2.199C-789.39,63.04-788.73,64.72-792.16,67.6z"/>
	<path fill-rule="evenodd" clip-rule="evenodd" fill="#FF7A7A" d="M-764.4,73.7c-2.48,6.1-5.94,12.109-13.24,12.89
		c-2.99,0.32-7.06-1.32-9.15-3.51c-1.4-1.47-1.11-5.87,0.01-8.21c3.27-6.891,7.21-13.48,11.22-19.98c0.62-1,3.23-1.6,4.5-1.16
		c1.94,0.671,3.51,2.4,4.37,3.04C-761.94,62.63-762.2,68.27-764.4,73.7z"/>
	<path fill-rule="evenodd" clip-rule="evenodd" fill="#FF7A7A" d="M-922.5,230.51c-2.94,1.16-7.55,0.23-10.49-1.399
		c-3.03-1.69-1.15-5.08,0.61-7.41c1.5-1.98,3.27-3.76,4.92-5.63c3.01-2.88,5.27-2.07,7.3,1.159
		C-917.46,221.52-918.11,228.79-922.5,230.51z"/>
	<path fill-rule="evenodd" clip-rule="evenodd" fill="#FF7A7A" d="M-895.1,191.6c-0.83,3.46-2.14,6.801-4.22,12.91
		c-1.44-1.02-3.3-1.63-3.71-2.77c-0.87-2.44-1.98-5.561-1.13-7.641c0.85-2.1,3.87-3.47,6.17-4.71
		C-897.51,189.14-894.97,191.09-895.1,191.6z"/>
	<path fill-rule="evenodd" clip-rule="evenodd" fill="#FF7A7A" d="M-875.56,175.5c-4.56-3.6-1.36-8.33,6.79-14.271
		C-864.22,164.77-866.69,169.97-875.56,175.5z"/>
	<path fill-rule="evenodd" clip-rule="evenodd" fill="#FF7A7A" d="M-848.2,148.28c-0.74,0.3-2.41,0.1-2.55-0.28
		c-0.49-1.28-1.15-3.32-0.53-4.04c2.86-3.41,6.13-6.47,9.26-9.66C-840.46,139.25-844.73,146.89-848.2,148.28z"/>
</g>
</svg>
